<?xml version="1.0" encoding="UTF-8" standalone="no"?>
<!DOCTYPE svg PUBLIC "-//W3C//DTD SVG 1.1//EN" "http://www.w3.org/Graphics/SVG/1.1/DTD/svg11.dtd">
<!-- Created with Vectornator (http://vectornator.io/) -->
<svg height="100%" stroke-miterlimit="10"
     style="fill-rule:nonzero;clip-rule:evenodd;stroke-linecap:round;stroke-linejoin:round;" version="1.1"
     viewBox="0 0 841.995 595.35" width="100%" xml:space="preserve" xmlns="http://www.w3.org/2000/svg"
     xmlns:vectornator="http://vectornator.io" xmlns:xlink="http://www.w3.org/1999/xlink">
<defs/>
    <g id="终" vectornator:layerName="终">
<path d="M416 150L376.938 172.531L299.719 217.125L291.5 221.875C291.178 222.061 290.625 223.034 290.625 223.406L290.625 226.656L290.625 285.125L290.625 285.688L290.625 310.094L290.625 310.156L345.219 310.406L345.188 310.156L345.062 310.156L345.062 292.688L345.062 285.719L345.062 285.156L345.062 258.812C345.063 255.895 346.817 252.865 349.344 251.406L356.969 247L372.312 238.156L392.25 226.688L412.75 214.906L416 213.031L416 207.062L416 185.312L416 183.156L416 150Z"
      fill="#f37433" fill-rule="nonzero" opacity="1" stroke="none"/>
        <path d="M290.625 310.156L290.625 310.188L290.625 322.656L290.625 370.812L290.625 371.938C290.625 372.308 291.178 373.283 291.5 373.469L309.156 383.656L356.656 411.094L358.562 410L400.812 385.531L404.031 383.656L411.062 379.594C407.805 377.713 399.38 372.843 389.906 367.375C371.747 356.893 349.344 343.969 349.344 343.969C349.324 343.956 349.301 343.949 349.281 343.938L312.312 322.656L290.625 310.156Z"
              fill="#f9eedb" fill-rule="nonzero" opacity="1" stroke="none" vectornator:layerName="曲线 40"/>
        <path d="M536.594 409.906L497.531 432.469L510.875 447.531L514.719 451.906L527.438 466.281L539.469 479.844L539.5 479.812L543 483.781L579.375 524.844L583.25 529.25L592.281 539.438L594.781 530.406L596.344 524.781L601.5 506.281L606.406 488.719L599.812 481.281L599.781 481.312L598.062 479.406L559.312 435.594L542.781 416.906L542.719 416.844L536.594 409.906Z"
              fill="#f9eedb" fill-rule="nonzero" opacity="1" stroke="none" vectornator:layerName="曲线 41"/>
        <path d="M485.656 184.438L483.844 185.469L431.156 215.812L431.094 215.844L449.812 226.656L492.023 251.078C492.023 251.078 492.043 251.188 492.051 251.15L514.906 264.094L551.375 285.125L551.375 285.094L551.375 264.094L551.375 226.656L551.375 224.438L551.375 223.406C551.376 223.034 550.822 222.061 550.5 221.875L485.688 184.438L485.656 184.438Z"
              fill="#f9eedb" fill-rule="nonzero" opacity="1" stroke="none" vectornator:layerName="曲线 44"/>
        <path d="M496.938 285.125L496.938 285.156L496.938 304.062L496.938 310.156L496.938 314.406L496.938 336.594C496.937 339.512 495.183 342.51 492.656 343.969L472.375 355.656L455 365.719L432.594 378.656L426 382.469L426 382.5L426 383.656L426 388.188L426 410.781L426 427.531L426 445.344C426.004 445.337 426.026 445.347 426.031 445.344L432.594 441.562L433.938 440.781L472.062 418.75L472.344 418.594L475.531 416.75L480.875 413.656L519.938 391.094L528.75 386L532.844 383.656L548.062 374.875L550.5 373.469C550.822 373.282 551.375 372.309 551.375 371.938L551.375 370.875L551.375 310.156L551.375 304.062L551.375 302.938L551.375 285.188L551.375 285.156L551.375 285.125L525.938 285.125L496.938 285.125Z"
              fill="#f37433" fill-rule="nonzero" opacity="1" stroke="none"/>
        <path d="M290.625 310.156L312.312 322.656L349.156 343.844C348.589 343.49 348.034 343.083 347.562 342.594C346.872 341.878 346.361 340.997 345.938 340.094C345.848 339.9 345.763 339.699 345.688 339.5C345.331 338.566 345.062 337.604 345.062 336.625L345.062 322.688L345.062 310.188L345.062 310.156L290.625 310.156Z"
              fill="#a93d00" fill-rule="nonzero" opacity="1" stroke="none" vectornator:layerName="曲线 55"/>
        <path d="M492.062 251.125C492.068 251.139 492.059 251.172 492.062 251.156L492.938 251.656C494.053 252.382 495.024 253.352 495.719 254.531C495.726 254.544 495.743 254.55 495.75 254.562C496.123 255.201 496.421 255.892 496.625 256.594C496.627 256.603 496.622 256.616 496.625 256.625C496.827 257.33 496.938 258.062 496.938 258.781C496.938 258.791 496.938 258.802 496.938 258.812L496.938 264.094L496.938 264.125L496.938 264.812L496.938 264.844L496.938 285.125L525.938 285.125L551.375 285.125L514.906 264.094L492.062 251.125Z"
              fill="#a93d00" fill-rule="nonzero" opacity="1" stroke="none" vectornator:layerName="曲线 56"/>
        <path d="M421 137.531C419.891 137.531 418.817 137.762 417.781 138.062C417.173 138.239 416.566 138.398 416 138.656C415.714 138.787 415.392 138.845 415.125 139L370.375 164.812L294.594 208.594L286.5 213.25C283.084 215.222 280.625 219.492 280.625 223.438L280.625 226.688L280.625 285.156L280.625 285.719L280.625 304.344L280.625 310.188L280.625 322.688L280.625 365.062L280.625 371.969C280.625 375.914 283.084 380.181 286.5 382.156C286.5 382.156 289.041 383.621 289.156 383.688C291.648 385.126 318.039 400.369 346.688 416.906C351.65 419.771 351.713 419.803 356.656 422.656L366.656 416.875L368.531 415.781L405.938 394.125L416 388.312L416 410.812L416 410.875L416 443.156L416 445.375L416 456.75C417.905 457.622 420.109 457.9 422.25 457.688C423.552 457.558 424.841 457.281 426 456.75C426.285 456.62 426.607 456.562 426.875 456.406L432.594 453.094L432.906 452.906L439.094 449.344L472.344 430.156L478.812 426.406L485.531 422.531L487.625 421.312L526.688 398.781L535.531 393.688L552.844 383.688L554.625 382.656L555.5 382.156C558.916 380.184 561.373 375.915 561.375 371.969L561.375 370.906L561.375 310.188L561.375 304.094L561.375 290.938L561.375 285.156L561.375 264.125L561.375 230.25L561.375 226.688L561.375 223.438C561.375 219.493 558.916 215.222 555.5 213.25L495.719 178.719C495.713 178.716 495.695 178.72 495.688 178.719L485.656 172.938L475.656 178.688L473.844 179.75L426 207.25L426 185.344L426 165.844L426 150.031L426 138.656C425.265 138.321 424.491 138.068 423.688 137.875C422.818 137.666 421.913 137.531 421 137.531ZM416 150L416 150.031L416 183.156L416 183.188L416 185.312L416 185.344L416 207.062L416 207.094L416 213.031L412.75 214.906L392.25 226.688L372.312 238.156L356.969 247L349.344 251.406C346.817 252.865 345.063 255.895 345.062 258.812L345.062 285.156L345.062 285.719L345.062 292.688L345.062 310.156L345.065 312.039L345.219 310.406L345.062 310.406L345.062 322.688L345.062 336.625C345.062 337.604 345.331 338.566 345.688 339.5C345.763 339.699 345.848 339.9 345.938 340.094C346.361 340.997 346.872 341.878 347.562 342.594C348.034 343.083 348.589 343.49 349.156 343.844L349.281 343.938C349.301 343.949 349.324 343.956 349.344 343.969C349.344 343.969 371.747 356.893 389.906 367.375C399.38 372.843 407.805 377.713 411.062 379.594L411.031 379.625L404.031 383.688L400.812 385.562L358.562 410.031L356.656 411.125L309.156 383.688L291.5 373.5C291.495 373.497 291.505 373.472 291.5 373.469C291.183 373.285 290.642 372.352 290.625 371.969L290.625 371.938L290.625 370.844L290.625 370.812L290.625 322.656L290.625 310.219L290.625 310.188L290.625 310.156L290.625 310.125L290.625 310.094L290.625 285.688L290.625 285.125L290.625 226.656L290.625 223.406C290.625 223.04 291.176 222.113 291.5 221.906C291.505 221.903 291.495 221.878 291.5 221.875L299.719 217.125L376.938 172.531L416 150ZM485.656 184.438L485.688 184.438L550.5 221.875C550.505 221.878 550.495 221.903 550.5 221.906C550.824 222.113 551.376 223.039 551.375 223.406C551.375 223.412 551.375 223.432 551.375 223.438L551.375 224.438L551.375 224.469L551.375 226.688L551.375 264.094L551.375 285.094L551.375 285.125L551.375 285.156L551.375 285.188L551.375 302.938L551.375 304.062L551.375 310.156L551.375 370.875L551.375 371.938C551.375 372.309 550.822 373.282 550.5 373.469L548.062 374.875L532.844 383.656L528.75 386L519.938 391.094L480.875 413.656L475.531 416.75L472.344 418.594L472.062 418.75L433.938 440.781L432.594 441.562L426.031 445.344C426.026 445.347 426.004 445.337 426 445.344L426 427.531L426 410.781L426 388.188L426 383.656L426 382.5L426 382.469L432.594 378.656L455 365.719L472.375 355.656L492.656 343.969C495.183 342.51 496.937 339.512 496.938 336.594L496.938 314.406L496.938 310.156L496.938 304.062L496.938 285.156L496.938 285.125L496.938 264.844L496.938 264.812L496.938 264.125L496.938 264.094L496.938 258.812C496.938 258.802 496.938 258.791 496.938 258.781C496.938 258.062 496.827 257.33 496.625 256.625C496.622 256.616 496.627 256.603 496.625 256.594C496.421 255.892 496.123 255.201 495.75 254.562C495.743 254.55 495.726 254.544 495.719 254.531C495.024 253.352 494.053 252.382 492.938 251.656L492.062 251.156C492.059 251.172 492.069 251.139 492.062 251.125C492.055 251.102 492.031 251.094 492.031 251.094L491.625 250.875L469.406 238L449.812 226.688L431.125 215.875L431.094 215.844L431.156 215.812L483.844 185.469L485.656 184.438ZM421 221.562L421.094 221.625L423.688 223.125L426 224.469L429.844 226.688L486.938 259.656L486.938 264.125L486.938 285.156L486.938 302.625L486.938 304.094L486.938 310.188L486.938 335.75L467.375 347.031L432.594 367.156L426 370.969L422.25 373.125L421 373.844L416 370.969L379.312 349.781L355.062 335.75L355.062 322.688L355.062 310.188L355.062 309.344L355.062 285.719L355.062 285.156L355.062 259.656L378.438 246.156L412.094 226.688L416 224.438L417.781 223.406L419.25 222.562L421 221.562Z"
              fill="#d45904" fill-rule="nonzero" opacity="1" stroke="none"/>
        <path d="M538.656 397.188L529.844 402.281L490.781 424.844L481.969 429.938L488.719 437.562L503.375 454.156L503.406 454.188L519.938 472.906L558.688 516.688L560.406 518.594L560.438 518.562L571.875 531.469L571.938 531.531L588.469 550.219L589.062 550.906L596.969 559.812L600.156 548.344L604.406 533.094L604.438 533.031L611.125 508.969L614.281 497.625L617.5 486.125L609.594 477.219L582.375 446.469L578.875 442.5L578.844 442.562L566.812 429L554.094 414.625L550.219 410.25L545.406 404.812L538.656 397.188ZM536.594 409.906L542.719 416.844L542.781 416.906L559.312 435.594L598.062 479.406L599.781 481.312L599.812 481.281L606.406 488.719L601.5 506.281L596.344 524.781L594.781 530.406L592.281 539.438L583.25 529.25L579.375 524.844L543 483.781L539.5 479.812L539.469 479.844L527.438 466.281L514.719 451.906L510.875 447.531L497.531 432.469L536.594 409.906Z"
              fill="#d45904" fill-rule="nonzero" opacity="1" stroke="none" vectornator:layerName="曲线 50"/>
</g>
</svg>
