<?xml version="1.0" encoding="UTF-8" standalone="no"?>
<!DOCTYPE svg PUBLIC "-//W3C//DTD SVG 1.1//EN" "http://www.w3.org/Graphics/SVG/1.1/DTD/svg11.dtd">
<!-- Created with Vectornator (http://vectornator.io/) -->
<svg height="100%" stroke-miterlimit="10"
     style="fill-rule:nonzero;clip-rule:evenodd;stroke-linecap:round;stroke-linejoin:round;" version="1.1"
     viewBox="0 0 841.995 595.35" width="100%" xml:space="preserve" xmlns="http://www.w3.org/2000/svg"
     xmlns:vectornator="http://vectornator.io" xmlns:xlink="http://www.w3.org/1999/xlink">
<defs/>
    <clipPath id="ArtboardFrame">
<rect height="595.35" width="841.995" x="0" y="0"/>
</clipPath>
    <g clip-path="url(#ArtboardFrame)" id="终" vectornator:layerName="终">
<path d="M992.184 397.386C988.951 399.435 985.729 401.496 982.371 403.355C985.281 401.834 988.113 400.204 990.934 398.543C991.369 398.177 991.752 397.755 992.184 397.386Z"
      fill="#e3f501" fill-rule="nonzero" opacity="1" stroke="none" vectornator:layerName="曲线 10"/>
        <path d="M995.652 395.668C994.094 396.646 992.521 397.607 990.934 398.543C977.075 410.176 961.499 419.818 944.684 427.136C963.396 419.392 980.524 408.669 995.652 395.668Z"
              fill="#e3f501" fill-rule="nonzero" opacity="1" stroke="none" vectornator:layerName="曲线 12"/>
        <path d="M996.996 394.449C995.441 395.499 993.77 396.381 992.184 397.386C991.752 397.755 991.369 398.177 990.934 398.543C992.521 397.607 994.094 396.646 995.652 395.668C996.111 395.273 996.541 394.848 996.996 394.449Z"
              fill="#e3f501" fill-rule="nonzero" opacity="1" stroke="none" vectornator:layerName="曲线 14"/>
        <path d="M552.125 285.688L529.188 306.75C530.124 306.53 531.021 306.25 532.062 306.25C532.768 306.25 533.449 306.364 534.125 306.469C536.812 306.884 539.211 308.055 541.125 309.812C543.406 311.907 544.931 314.772 545.344 318L548.438 303.281L550.562 293.156L552.125 285.688Z"
              fill="#f37433" fill-rule="nonzero" opacity="1" stroke="none" vectornator:layerName="曲线 225"/>
        <path d="M481.875 295.625C489.331 301.441 494.187 310.398 494.188 320.594C494.188 329.839 490.127 338.017 483.844 343.844L504.75 324.656L504.844 324.562L504.875 324.562L516.281 314.094L481.875 295.625Z"
              fill="#f37433" fill-rule="nonzero" opacity="1" stroke="none" vectornator:layerName="曲线 226"/>
        <path d="M519.406 315.781L507.625 326.594L519.938 335.594C519.661 335.096 519.207 334.526 519 334.062C516.928 329.429 517.037 322.399 518.938 316.812C519.07 316.45 519.29 316.163 519.438 315.812L519.406 315.781Z"
              fill="#f37433" fill-rule="nonzero" opacity="1" stroke="none" vectornator:layerName="曲线 227"/>
        <path d="M541.812 266C535.191 266 529.356 269.36 525.875 274.438C525.149 275.497 524.506 276.616 524 277.812L513.094 304.969C508.343 296.016 499.029 289.844 488.188 289.844C485.502 289.844 482.983 290.377 480.531 291.094L518.906 311.688L553.312 280.062L555.125 271.375C551.659 268.065 546.987 266 541.812 266Z"
              fill="#f37433" fill-rule="nonzero" opacity="1" stroke="none" vectornator:layerName="曲线 228"/>
        <path d="M505.094 328.938L488.281 344.375L494.5 344.375L498.719 344.375L511.094 344.375L517.031 344.375L526.219 344.375L505.094 328.938Z"
              fill="#f37433" fill-rule="nonzero" opacity="1" stroke="none" vectornator:layerName="曲线 229"/>
        <path d="M711.375 182.156C710.486 185.131 709.799 188.181 709.062 191.219C705.768 204.801 703.844 218.936 703.844 233.531C703.844 266.436 712.86 297.158 728.344 323.656C732.564 330.878 737.219 337.78 742.375 344.312L768.25 344.312C763.615 340.693 759.33 336.011 755.438 330.75C748.359 321.185 742.541 309.702 738.062 299.188C729.23 278.454 726.469 263.272 726.469 238.094C726.469 224.027 727.266 211.24 731.438 198.469C724.539 194.23 716.694 188.101 711.375 182.156Z"
              fill="#f37433" fill-rule="nonzero" opacity="1" stroke="none" vectornator:layerName="曲线 235"/>
        <path d="M702.75 205.219C699.96 209.554 692.272 216.933 687.969 219.938C687.703 221.26 687.696 222.555 687.656 223.656C687.568 226.076 687.583 227.746 687.531 230.219C687.4 236.436 687.719 241.066 687.719 248.781C687.719 252.544 688.467 259.393 688.719 263.094C688.963 266.691 689.346 270.267 689.781 273.812C690.511 279.756 691.514 285.617 692.812 291.375C692.824 291.427 692.832 291.479 692.844 291.531C692.875 291.667 692.938 291.801 692.969 291.938C694.274 297.643 695.848 303.246 697.688 308.75C697.708 308.812 697.729 308.875 697.75 308.938C698.198 310.275 698.615 311.613 699.094 312.938C699.12 313.009 699.134 313.084 699.156 313.156C699.159 313.166 699.153 313.178 699.156 313.188C701.118 318.587 703.398 323.862 705.844 329.031C708.31 334.242 710.944 339.361 713.875 344.312L737.5 344.312C726.657 329.631 717.967 313.43 711.688 296.188C711.215 294.891 710.694 293.621 710.25 292.312C703.939 273.699 700.5 253.885 700.5 233.281C700.5 223.736 701.318 214.383 702.75 205.219Z"
              fill="#f37433" fill-rule="nonzero" opacity="1" stroke="none" vectornator:layerName="曲线 236"/>
        <path d="M661.312 256.625L626.062 297.375L638.219 309.094L648.594 297.562L669.219 261.25L661.312 256.625Z"
              fill="#f37433" fill-rule="nonzero" opacity="1" stroke="none" vectornator:layerName="曲线 237"/>
        <path d="M672.219 263L659.5 285.438L663.594 280.875L691.906 298.594C689.633 289.849 688.064 280.863 687.125 271.688L672.219 263Z"
              fill="#f37433" fill-rule="nonzero" opacity="1" stroke="none" vectornator:layerName="曲线 238"/>
        <path d="M692 299L674 329.531L645.094 315.75L673.188 342.906L696.031 312.469C694.498 308.059 693.193 303.546 692 299Z"
              fill="#f37433" fill-rule="nonzero" opacity="1" stroke="none" vectornator:layerName="曲线 239"/>
        <path d="M623.812 299.969L615.938 309.094L628.688 332.625L638.906 314.594L623.812 299.969Z" fill="#f37433"
              fill-rule="nonzero" opacity="1" stroke="none" vectornator:layerName="曲线 240"/>
        <path d="M697.531 316.312L676.438 344.312L686.188 344.312L703.844 331.219C701.519 326.356 699.424 321.383 697.531 316.312Z"
              fill="#f37433" fill-rule="nonzero" opacity="1" stroke="none" vectornator:layerName="曲线 241"/>
        <path d="M641.531 317.094L630.625 336.25L634.969 344.312L669.688 344.312L641.531 317.094Z" fill="#f37433"
              fill-rule="nonzero" opacity="1" stroke="none" vectornator:layerName="曲线 242"/>
        <path d="M159.25 206.031C159.435 209.948 159.594 213.879 159.594 217.844C159.594 226.624 159.032 235.257 158.125 243.781L188.188 218.531L159.25 206.031Z"
              fill="#f37433" fill-rule="nonzero" opacity="1" stroke="none" vectornator:layerName="曲线 243"/>
        <path d="M228 238.156L190.188 290.781L209.844 290.25L228 238.156Z" fill="#f37433" fill-rule="nonzero"
              opacity="1" stroke="none" vectornator:layerName="曲线 244"/>
        <path d="M185.531 192.844L159.438 202.438L227.594 231.906L185.531 192.844Z" fill="#f37433" fill-rule="nonzero"
              opacity="1" stroke="none" vectornator:layerName="曲线 245"/>
        <path d="M194.5 221.281L211.875 242.688L183.969 267.438L158.125 243.781C158.118 243.844 158.1 243.906 158.094 243.969L187.156 289.25L226.156 234.969L194.5 221.281Z"
              fill="#f37433" fill-rule="nonzero" opacity="1" stroke="none" vectornator:layerName="曲线 246"/>
        <path d="M157.531 249.25C156.338 258.516 154.651 267.621 152.5 276.531L166.281 291.469L184.281 290.969L157.531 249.25Z"
              fill="#f37433" fill-rule="nonzero" opacity="1" stroke="none" vectornator:layerName="曲线 247"/>
        <path d="M134.062 206.406C131.261 216.994 124.604 225.941 115.562 231.625C115.362 251.15 112.141 269.914 106.406 287.562C99.6747 308.278 89.5598 327.465 76.5625 344.375L98.0625 344.375C109.378 327.427 118.33 308.801 124.594 288.969C124.595 288.965 124.624 288.972 124.625 288.969C126.269 283.762 127.74 278.46 129 273.094C132.781 256.994 134.781 240.222 134.781 222.969C134.781 217.392 134.486 211.875 134.062 206.406Z"
              fill="#f37433" fill-rule="nonzero" opacity="1" stroke="none" vectornator:layerName="曲线 248"/>
        <path d="M135.812 188C137.628 199.349 138.594 210.983 138.594 222.844C138.594 245.678 135.079 267.684 128.594 288.375C122.306 308.435 113.227 327.257 101.781 344.375L122.781 344.375C125.684 339.432 128.416 334.365 130.969 329.188C133.219 324.623 135.28 319.951 137.25 315.219C137.912 313.63 138.527 312.013 139.156 310.406C140.597 306.73 141.949 303.015 143.219 299.25C143.31 298.978 143.406 298.708 143.5 298.438C143.58 298.197 143.67 297.96 143.75 297.719C144.006 296.945 144.283 296.184 144.531 295.406C144.564 295.303 144.592 295.197 144.625 295.094C144.635 295.063 144.646 295.031 144.656 295C146.241 290.015 147.72 284.965 149 279.844C149.473 277.95 149.818 276.004 150.25 274.094C150.924 271.112 151.65 268.147 152.219 265.125C153.44 258.639 154.319 252.036 155.031 245.375C155.223 243.578 155.378 241.778 155.531 239.969C156.113 233.105 156.531 226.184 156.531 219.156C156.531 214.16 156.677 209.595 156.562 204.875C156.552 204.428 156.549 203.983 156.531 203.531C156.499 202.733 156.526 201.973 156.469 201.156C156.468 201.146 156.47 201.136 156.469 201.125C156.321 200.961 156.185 200.785 156.031 200.625C155.942 200.539 155.84 200.461 155.75 200.375C150.254 195.139 143.101 190.443 135.812 188Z"
              fill="#f37433" fill-rule="nonzero" opacity="1" stroke="none" vectornator:layerName="曲线 249"/>
        <path d="M265.812 276.125L242.625 307.188L250.969 341.156C250.758 338.341 250.562 335.526 250.562 332.656C250.562 312.037 256.179 292.772 265.812 276.125Z"
              fill="#f37433" fill-rule="nonzero" opacity="1" stroke="none" vectornator:layerName="曲线 251"/>
        <path d="M240.031 310.688L214.906 344.375L238.062 344.375L248.281 344.375L240.031 310.688Z" fill="#f37433"
              fill-rule="nonzero" opacity="1" stroke="none" vectornator:layerName="曲线 252"/>
        <path d="M596.34 256.719C589.463 262.321 580.82 265.781 571.246 265.781C569.432 265.781 567.688 265.494 565.934 265.25L582.559 296.156L596.34 256.719Z"
              fill="#f37433" fill-rule="nonzero" opacity="1" stroke="none" vectornator:layerName="曲线 253"/>
        <path d="M567.778 275.75C571.228 285.904 573.184 296.74 573.184 308.062C573.184 315.984 572.092 323.608 570.371 331L581.059 300.438L567.778 275.75Z"
              fill="#f37433" fill-rule="nonzero" opacity="1" stroke="none" vectornator:layerName="曲线 254"/>
        <path d="M583.215 304.438L569.278 344.312L569.778 344.312L576.934 344.312L580.809 344.312L587.778 344.312L587.684 344.375L593.903 344.375L593.996 344.312L601.746 344.312L604.653 344.312L583.215 304.438Z"
              fill="#f37433" fill-rule="nonzero" opacity="1" stroke="none" vectornator:layerName="曲线 255"/>
        <path d="M592.059 279.125L584.715 300.156L608.465 344.312L619.903 344.312C602.634 331.594 591.403 311.155 591.403 288.062C591.403 285.023 591.676 282.059 592.059 279.125Z"
              fill="#f37433" fill-rule="nonzero" opacity="1" stroke="none" vectornator:layerName="曲线 256"/>
        <path d="M230.875 273.625C231.61 277.632 232.031 281.74 232.031 285.969C232.031 310.831 218.659 332.56 198.719 344.375L210.719 344.375L239 306.469L230.906 273.656L230.875 273.625Z"
              fill="#f37433" fill-rule="nonzero" opacity="1" stroke="none" vectornator:layerName="曲线 260"/>
        <path d="M232.969 267.75L241.594 302.969L266.875 269.062C262.051 270.848 258.17 273.47 252.714 273.47C246.098 273.47 238.627 270.307 232.969 267.75Z"
              fill="#f37433" fill-rule="nonzero" opacity="1" stroke="none" vectornator:layerName="曲线 261"/>
        <path d="M580.423 215.042C572.261 214.331 564.952 222.118 564.075 232.433C563.199 242.748 569.101 251.684 577.262 252.395C585.424 253.106 592.733 245.319 593.61 235.004C594.486 224.689 588.584 215.753 580.423 215.042Z"
              fill="#f37433" fill-rule="nonzero" opacity="1" stroke="none" vectornator:layerName="曲线 262"/>
        <path d="M252.238 232.256C245.284 232.256 239.644 239.469 239.644 248.377C239.644 257.285 245.284 264.531 252.238 264.531C259.191 264.53 264.831 257.285 264.831 248.377C264.832 239.469 259.191 232.256 252.238 232.256Z"
              fill="#f37433" fill-rule="nonzero" opacity="1" stroke="none" vectornator:layerName="曲线 263"/>
        <path d="M328.156 332.156L308.562 332.562L279.062 344.375L281.344 344.375L347.219 344.375L328.156 332.156Z"
              fill="#f37433" fill-rule="nonzero" opacity="1" stroke="none" vectornator:layerName="曲线 264"/>
        <path d="M292.844 246.156L306.156 266.844L332.281 281.719L342.125 272.375L292.844 246.156Z" fill="#f37433"
              fill-rule="nonzero" opacity="1" stroke="none" vectornator:layerName="曲线 265"/>
        <path d="M373.531 266.812L372.344 267.094L368.562 311.875L392.281 344.375L396.156 344.375L373.531 266.812Z"
              fill="#f37433" fill-rule="nonzero" opacity="1" stroke="none" vectornator:layerName="曲线 276"/>
        <path d="M418.562 219.688L375.719 262.312L375.875 262.844L427.688 250.781L427.938 250.531L418.562 219.688Z"
              fill="#f37433" fill-rule="nonzero" opacity="1" stroke="none" vectornator:layerName="曲线 277"/>
        <path d="M470.406 316.219L405.594 344.375L407.75 344.375L416.719 344.375L424.562 344.375L433.781 344.375L444.312 344.375L462.812 344.375L470.406 316.219Z"
              fill="#f37433" fill-rule="nonzero" opacity="1" stroke="none" vectornator:layerName="曲线 278"/>
        <path d="M423.75 255.125L376.812 266.031L399.375 343.375L471.5 312.062L473.406 305.031L440.062 294.438L451.375 318.406L411.875 324.125L394.375 287.406L423.75 255.125Z"
              fill="#f37433" fill-rule="nonzero" opacity="1" stroke="none" vectornator:layerName="曲线 279"/>
        <path d="M421.969 219.406L431.219 249.969L431.281 250.156L435.344 252.438L471.312 272.594L473.312 263.125L455.312 247.812L452.156 245.094L421.969 219.406Z"
              fill="#f37433" fill-rule="nonzero" opacity="1" stroke="none" vectornator:layerName="曲线 280"/>
        <path d="M289.625 247.375L277.312 264.906L309.906 302.938L310.594 303.75L312.062 305.5L271.844 343.656L305.281 330.25L318.562 314.938L328.969 328.719L350.844 342.719L350.094 341.562L328.469 307.875L329.344 306.938L330.844 305.344L331.656 304.5L355.25 279.344L345.25 274.031L323.812 294.375L321.312 296.719L319.469 293.844L289.625 247.375Z"
              fill="#f37433" fill-rule="nonzero" opacity="1" stroke="none" vectornator:layerName="曲线 291"/>
</g>
</svg>
